<svg width="750" height="750" viewBox="0 0 750 750" fill="none" xmlns="http://www.w3.org/2000/svg">
<path d="M489.797 462.547C516.624 456.9 537.358 434.657 540.713 407.068L543.58 383.486H592.597V334.472L616.179 331.604C643.768 328.249 666.011 307.513 671.658 280.686H698.888C692.93 321.297 660.338 353.249 619.415 358.225V410.304H567.334C562.359 451.226 530.408 483.821 489.797 489.776V462.547ZM489.797 44.7765C530.408 50.7344 562.359 83.3266 567.334 124.25H619.415V176.33C660.338 181.305 692.93 213.255 698.888 253.868H671.658C666.011 227.042 643.768 206.305 616.179 202.95L592.597 200.083V151.068H543.58L540.713 127.486C537.358 99.8979 516.624 77.6523 489.797 72.005V44.7765ZM407.666 383.486H409.195L412.062 407.068C415.417 434.656 436.153 456.9 462.98 462.547V489.776C422.369 483.821 390.417 451.227 385.441 410.304H380.848L407.666 383.486ZM385.441 124.25C390.417 83.3266 422.369 50.7345 462.98 44.7765V72.0079C436.153 77.6553 415.417 99.898 412.062 127.486L409.195 151.068H408.667L381.849 124.25H385.441Z" fill="#E54F71"/>
<path d="M64.7563 302.132C45.2301 282.606 45.2301 250.947 64.7563 231.421L241.533 54.6447C261.059 35.1184 292.717 35.1184 312.244 54.6447L381.849 124.25H333.363V176.33C292.44 181.305 259.844 213.255 253.888 253.868H281.116C286.763 227.04 309.01 206.305 336.599 202.95L360.18 200.083V151.068H408.667L489.02 231.421C508.546 250.947 508.546 282.606 489.02 302.132L407.666 383.486H360.18V334.472L336.599 331.604C309.01 328.249 286.766 307.513 281.119 280.686H253.888C259.844 321.298 292.44 353.249 333.363 358.225V410.304H380.848L312.244 478.908C292.717 498.435 261.059 498.435 241.533 478.908L64.7563 302.132Z" fill="#40A0FF"/>
<path d="M64.9767 645.68C64.9767 640.291 65.9794 635.559 67.9847 631.486C70.0527 627.413 72.8414 624.279 76.3507 622.086C79.8601 619.893 83.7767 618.796 88.1007 618.796C91.7981 618.796 95.0254 619.548 97.7827 621.052C100.603 622.556 102.765 624.53 104.269 626.974V619.548H120.343V672H104.269V664.574C102.702 667.018 100.509 668.992 97.6887 670.496C94.9314 672 91.7041 672.752 88.0067 672.752C83.7454 672.752 79.8601 671.655 76.3507 669.462C72.8414 667.206 70.0527 664.041 67.9847 659.968C65.9794 655.832 64.9767 651.069 64.9767 645.68ZM104.269 645.774C104.269 641.763 103.141 638.599 100.885 636.28C98.6914 633.961 95.9967 632.802 92.8007 632.802C89.6047 632.802 86.8787 633.961 84.6227 636.28C82.4294 638.536 81.3327 641.669 81.3327 645.68C81.3327 649.691 82.4294 652.887 84.6227 655.268C86.8787 657.587 89.6047 658.746 92.8007 658.746C95.9967 658.746 98.6914 657.587 100.885 655.268C103.141 652.949 104.269 649.785 104.269 645.774ZM128.776 645.774C128.776 640.322 129.872 635.559 132.066 631.486C134.322 627.413 137.424 624.279 141.372 622.086C145.382 619.893 149.957 618.796 155.096 618.796C161.676 618.796 167.159 620.519 171.546 623.966C175.995 627.413 178.909 632.269 180.288 638.536H163.18C161.738 634.525 158.95 632.52 154.814 632.52C151.868 632.52 149.518 633.679 147.764 635.998C146.009 638.254 145.132 641.513 145.132 645.774C145.132 650.035 146.009 653.325 147.764 655.644C149.518 657.9 151.868 659.028 154.814 659.028C158.95 659.028 161.738 657.023 163.18 653.012H180.288C178.909 659.153 175.995 663.979 171.546 667.488C167.096 670.997 161.613 672.752 155.096 672.752C149.957 672.752 145.382 671.655 141.372 669.462C137.424 667.269 134.322 664.135 132.066 660.062C129.872 655.989 128.776 651.226 128.776 645.774ZM255.814 618.984C262.331 618.984 267.501 620.958 271.324 624.906C275.209 628.854 277.152 634.337 277.152 641.356V672H261.172V643.518C261.172 640.134 260.263 637.533 258.446 635.716C256.691 633.836 254.247 632.896 251.114 632.896C247.98 632.896 245.505 633.836 243.688 635.716C241.933 637.533 241.056 640.134 241.056 643.518V672H225.076V643.518C225.076 640.134 224.167 637.533 222.35 635.716C220.595 633.836 218.151 632.896 215.018 632.896C211.884 632.896 209.409 633.836 207.592 635.716C205.837 637.533 204.96 640.134 204.96 643.518V672H188.886V619.548H204.96V626.128C206.589 623.935 208.72 622.211 211.352 620.958C213.984 619.642 216.96 618.984 220.282 618.984C224.23 618.984 227.739 619.83 230.81 621.522C233.943 623.214 236.387 625.627 238.142 628.76C239.959 625.877 242.434 623.527 245.568 621.71C248.701 619.893 252.116 618.984 255.814 618.984Z" fill="#40A0FF"/>
<path d="M305.117 645.774C305.117 640.322 306.214 635.559 308.407 631.486C310.663 627.413 313.765 624.279 317.713 622.086C321.724 619.893 326.299 618.796 331.437 618.796C338.017 618.796 343.501 620.519 347.887 623.966C352.337 627.413 355.251 632.269 356.629 638.536H339.521C338.08 634.525 335.291 632.52 331.155 632.52C328.21 632.52 325.86 633.679 324.105 635.998C322.351 638.254 321.473 641.513 321.473 645.774C321.473 650.035 322.351 653.325 324.105 655.644C325.86 657.9 328.21 659.028 331.155 659.028C335.291 659.028 338.08 657.023 339.521 653.012H356.629C355.251 659.153 352.337 663.979 347.887 667.488C343.438 670.997 337.955 672.752 331.437 672.752C326.299 672.752 321.724 671.655 317.713 669.462C313.765 667.269 310.663 664.135 308.407 660.062C306.214 655.989 305.117 651.226 305.117 645.774ZM397.469 618.984C403.485 618.984 408.311 620.989 411.945 625C415.58 628.948 417.397 634.4 417.397 641.356V672H401.417V643.518C401.417 640.009 400.509 637.283 398.691 635.34C396.874 633.397 394.43 632.426 391.359 632.426C388.289 632.426 385.845 633.397 384.027 635.34C382.21 637.283 381.301 640.009 381.301 643.518V672H365.227V602.44H381.301V626.598C382.931 624.279 385.155 622.431 387.975 621.052C390.795 619.673 393.96 618.984 397.469 618.984ZM425.371 645.68C425.371 640.291 426.374 635.559 428.379 631.486C430.447 627.413 433.236 624.279 436.745 622.086C440.255 619.893 444.171 618.796 448.495 618.796C452.193 618.796 455.42 619.548 458.177 621.052C460.997 622.556 463.159 624.53 464.663 626.974V619.548H480.737V672H464.663V664.574C463.097 667.018 460.903 668.992 458.083 670.496C455.326 672 452.099 672.752 448.401 672.752C444.14 672.752 440.255 671.655 436.745 669.462C433.236 667.206 430.447 664.041 428.379 659.968C426.374 655.832 425.371 651.069 425.371 645.68ZM464.663 645.774C464.663 641.763 463.535 638.599 461.279 636.28C459.086 633.961 456.391 632.802 453.195 632.802C449.999 632.802 447.273 633.961 445.017 636.28C442.824 638.536 441.727 641.669 441.727 645.68C441.727 649.691 442.824 652.887 445.017 655.268C447.273 657.587 449.999 658.746 453.195 658.746C456.391 658.746 459.086 657.587 461.279 655.268C463.535 652.949 464.663 649.785 464.663 645.774ZM508.44 626.974C510.007 624.53 512.169 622.556 514.926 621.052C517.683 619.548 520.911 618.796 524.608 618.796C528.932 618.796 532.849 619.893 536.358 622.086C539.867 624.279 542.625 627.413 544.63 631.486C546.698 635.559 547.732 640.291 547.732 645.68C547.732 651.069 546.698 655.832 544.63 659.968C542.625 664.041 539.867 667.206 536.358 669.462C532.849 671.655 528.932 672.752 524.608 672.752C520.973 672.752 517.746 672 514.926 670.496C512.169 668.992 510.007 667.049 508.44 664.668V697.004H492.366V619.548H508.44V626.974ZM531.376 645.68C531.376 641.669 530.248 638.536 527.992 636.28C525.799 633.961 523.073 632.802 519.814 632.802C516.618 632.802 513.892 633.961 511.636 636.28C509.443 638.599 508.346 641.763 508.346 645.774C508.346 649.785 509.443 652.949 511.636 655.268C513.892 657.587 516.618 658.746 519.814 658.746C523.01 658.746 525.736 657.587 527.992 655.268C530.248 652.887 531.376 649.691 531.376 645.68ZM585.399 658.37V672H577.221C571.393 672 566.85 670.59 563.591 667.77C560.332 664.887 558.703 660.219 558.703 653.764V632.896H552.311V619.548H558.703V606.764H574.777V619.548H585.305V632.896H574.777V653.952C574.777 655.519 575.153 656.647 575.905 657.336C576.657 658.025 577.91 658.37 579.665 658.37H585.399ZM643.796 644.928C643.796 646.432 643.702 647.999 643.514 649.628H607.136C607.387 652.887 608.421 655.393 610.238 657.148C612.118 658.84 614.406 659.686 617.1 659.686C621.111 659.686 623.9 657.994 625.466 654.61H642.574C641.697 658.057 640.099 661.159 637.78 663.916C635.524 666.673 632.673 668.835 629.226 670.402C625.78 671.969 621.926 672.752 617.664 672.752C612.526 672.752 607.951 671.655 603.94 669.462C599.93 667.269 596.796 664.135 594.54 660.062C592.284 655.989 591.156 651.226 591.156 645.774C591.156 640.322 592.253 635.559 594.446 631.486C596.702 627.413 599.836 624.279 603.846 622.086C607.857 619.893 612.463 618.796 617.664 618.796C622.74 618.796 627.252 619.861 631.2 621.992C635.148 624.123 638.219 627.162 640.412 631.11C642.668 635.058 643.796 639.664 643.796 644.928ZM627.346 640.698C627.346 637.941 626.406 635.747 624.526 634.118C622.646 632.489 620.296 631.674 617.476 631.674C614.782 631.674 612.494 632.457 610.614 634.024C608.797 635.591 607.669 637.815 607.23 640.698H627.346ZM668.35 628.29C670.23 625.407 672.58 623.151 675.4 621.522C678.22 619.83 681.354 618.984 684.8 618.984V635.998H680.382C676.372 635.998 673.364 636.875 671.358 638.63C669.353 640.322 668.35 643.33 668.35 647.654V672H652.276V619.548H668.35V628.29Z" fill="#E54F71"/>
</svg>
