<svg xmlns="http://www.w3.org/2000/svg" xmlns:xlink="http://www.w3.org/1999/xlink" width="1920" zoomAndPan="magnify" viewBox="0 0 1440 809.999993" height="1080" preserveAspectRatio="xMidYMid meet" version="1.0"><defs><clipPath id="a1368d1fc4"><path d="M 800.148438 170.148438 L 1439.898438 170.148438 L 1439.898438 809.898438 L 800.148438 809.898438 Z M 800.148438 170.148438 " clip-rule="nonzero"/></clipPath><clipPath id="119d3c5548"><path d="M 0.242188 0.148438 L 639.898438 0.148438 L 639.898438 639.898438 L 0.242188 639.898438 Z M 0.242188 0.148438 " clip-rule="nonzero"/></clipPath><clipPath id="bc6d8d5798"><rect x="0" width="640" y="0" height="640"/></clipPath><clipPath id="c906251e89"><path d="M 0 170.148438 L 639.75 170.148438 L 639.75 809.898438 L 0 809.898438 Z M 0 170.148438 " clip-rule="nonzero"/></clipPath></defs><g clip-path="url(#a1368d1fc4)"><g transform="matrix(1, 0, 0, 1, 800, 170)"><g clip-path="url(#bc6d8d5798)"><g clip-path="url(#119d3c5548)"><path fill="#40a0f0" d="M 600.5 549.09375 C 600.5 544.398438 604.328125 540.574219 609.019531 540.574219 C 613.714844 540.574219 617.539062 544.398438 617.539062 549.09375 C 617.539062 553.296875 614.476562 556.804688 610.464844 557.496094 L 610.464844 601.09375 C 610.464844 601.570312 610.261719 601.945312 609.972656 602.191406 L 579.289062 632.875 C 578.941406 633.222656 578.523438 633.335938 578.148438 633.292969 L 406.292969 633.292969 C 405.816406 633.292969 405.441406 633.089844 405.195312 632.804688 L 352.621094 580.226562 L 202.210938 580.226562 C 201.5625 582.710938 199.292969 584.558594 196.625 584.558594 C 193.445312 584.558594 190.847656 581.960938 190.847656 578.78125 C 190.847656 575.605469 193.445312 573.007812 196.625 573.007812 C 199.308594 573.007812 201.578125 574.855469 202.210938 577.339844 L 353.054688 577.339844 C 353.355469 577.308594 353.6875 577.367188 354.007812 577.570312 C 354.09375 577.628906 354.164062 577.683594 354.238281 577.757812 L 406.886719 630.40625 L 577.671875 630.40625 L 607.574219 600.5 L 607.574219 557.511719 C 603.5625 556.804688 600.5 553.296875 600.5 549.09375 M 288.449219 564.542969 C 283.753906 564.542969 279.929688 560.71875 279.929688 556.023438 C 279.929688 551.332031 283.753906 547.503906 288.449219 547.503906 C 292.648438 547.503906 296.160156 550.566406 296.851562 554.582031 L 411.492188 554.582031 C 411.898438 554.582031 412.257812 554.738281 412.519531 555 L 463.652344 606.132812 L 556.441406 606.132812 L 580.5 582.058594 L 580.5 512.472656 L 488.34375 428.230469 C 487.984375 427.910156 487.839844 427.476562 487.867188 427.074219 L 487.867188 310.355469 C 485.382812 309.703125 483.535156 307.4375 483.535156 304.765625 C 483.535156 301.589844 486.132812 298.988281 489.3125 298.988281 C 492.488281 298.988281 495.085938 301.589844 495.085938 304.765625 C 495.085938 307.453125 493.238281 309.71875 490.753906 310.355469 L 490.753906 426.523438 L 582.824219 510.683594 C 583.027344 510.839844 583.199219 511.074219 583.316406 511.390625 C 583.359375 511.535156 583.386719 511.664062 583.386719 511.824219 L 583.386719 582.492188 C 583.433594 582.796875 583.359375 583.128906 583.15625 583.460938 C 583.101562 583.546875 583.042969 583.621094 582.96875 583.691406 L 558.0625 608.601562 C 557.800781 608.859375 557.441406 609.019531 557.035156 609.019531 L 463.1875 609.019531 C 462.886719 609.0625 462.554688 608.992188 462.234375 608.789062 C 462.148438 608.730469 462.078125 608.671875 462.003906 608.601562 L 410.871094 557.46875 L 296.839844 557.46875 C 296.160156 561.484375 292.648438 564.542969 288.449219 564.542969 Z M 510.003906 363.871094 C 505.917969 366.238281 500.746094 364.808594 498.363281 360.75 C 496.027344 356.664062 497.410156 351.464844 501.484375 349.113281 C 505.136719 347.003906 509.671875 347.914062 512.285156 351.046875 L 516.820312 348.417969 L 516.820312 289.257812 C 514.335938 288.605469 512.488281 286.339844 512.488281 283.667969 C 512.488281 280.492188 515.085938 277.890625 518.261719 277.890625 C 521.441406 277.890625 524.039062 280.492188 524.039062 283.667969 C 524.039062 286.355469 522.191406 288.621094 519.707031 289.257812 L 519.707031 349.15625 C 519.75 349.558594 519.605469 349.976562 519.246094 350.324219 C 519.171875 350.398438 519.085938 350.453125 518.984375 350.511719 L 513.730469 353.542969 C 515.128906 357.355469 513.65625 361.746094 510.003906 363.871094 Z M 558.191406 572.484375 C 558.191406 577.179688 554.363281 581.007812 549.671875 581.007812 C 544.976562 581.007812 541.152344 577.179688 541.152344 572.484375 C 541.152344 568.285156 544.210938 564.773438 548.226562 564.082031 L 548.226562 521.960938 L 453.339844 427.074219 C 452.992188 426.726562 452.878906 426.308594 452.921875 425.933594 L 452.921875 389.195312 C 450.4375 388.546875 448.589844 386.28125 448.589844 383.609375 C 448.589844 380.433594 451.1875 377.832031 454.367188 377.832031 C 457.542969 377.832031 460.140625 380.433594 460.140625 383.609375 C 460.140625 386.292969 458.292969 388.5625 455.808594 389.195312 L 455.808594 425.457031 L 550.625 520.269531 C 550.796875 520.429688 550.957031 520.644531 551.058594 520.921875 C 551.101562 521.066406 551.128906 521.195312 551.128906 521.355469 L 551.128906 564.066406 C 555.128906 564.773438 558.191406 568.285156 558.191406 572.484375 Z M 603.199219 425.570312 C 603.199219 430.265625 599.375 434.089844 594.679688 434.089844 C 589.988281 434.089844 586.160156 430.265625 586.160156 425.570312 C 586.160156 421.371094 589.222656 417.859375 593.238281 417.167969 L 593.238281 11.441406 C 590.753906 10.792969 588.90625 8.527344 588.90625 5.855469 C 588.90625 2.675781 591.503906 0.078125 594.679688 0.078125 C 597.859375 0.078125 600.457031 2.675781 600.457031 5.855469 C 600.457031 8.539062 598.609375 10.808594 596.125 11.441406 L 596.125 417.167969 C 600.125 417.859375 603.199219 421.371094 603.199219 425.570312 Z M 339.898438 596.773438 C 344.589844 596.773438 348.417969 600.601562 348.417969 605.292969 C 348.417969 609.988281 344.589844 613.8125 339.898438 613.8125 C 335.695312 613.8125 332.1875 610.753906 331.496094 606.738281 L 11.585938 606.738281 C 10.9375 609.222656 8.671875 611.070312 6 611.070312 C 2.820312 611.070312 0.222656 608.472656 0.222656 605.292969 C 0.222656 602.117188 2.820312 599.519531 6 599.519531 C 8.683594 599.519531 10.953125 601.367188 11.585938 603.851562 L 331.496094 603.851562 C 332.1875 599.851562 335.683594 596.773438 339.898438 596.773438 Z M 204.390625 497.441406 C 206.773438 493.367188 211.929688 491.96875 216.03125 494.320312 C 218.296875 495.648438 219.742188 497.859375 220.160156 500.257812 L 332.578125 500.257812 C 332.980469 500.214844 333.402344 500.359375 333.746094 500.71875 C 333.820312 500.789062 333.890625 500.878906 333.933594 500.980469 L 349.5 527.9375 L 419.765625 527.9375 C 420.070312 527.910156 420.402344 527.96875 420.734375 528.167969 C 420.820312 528.226562 420.894531 528.285156 420.964844 528.355469 L 472.316406 579.707031 L 517.066406 579.707031 L 517.066406 536.6875 C 513.050781 535.996094 509.988281 532.5 509.988281 528.285156 C 509.988281 523.59375 513.816406 519.765625 518.507812 519.765625 C 523.203125 519.765625 527.027344 523.59375 527.027344 528.285156 C 527.027344 532.488281 523.96875 535.996094 519.953125 536.6875 L 519.953125 581.152344 C 519.953125 582.046875 519.246094 582.578125 518.507812 582.59375 L 471.722656 582.59375 C 471.246094 582.59375 470.871094 582.390625 470.625 582.101562 L 419.332031 530.828125 L 348.664062 530.828125 C 348.070312 530.828125 347.652344 530.523438 347.421875 530.105469 L 331.855469 503.160156 L 220.175781 503.160156 C 220.015625 504.125 219.667969 505.078125 219.148438 505.976562 C 217.011719 509.628906 212.652344 511.117188 208.824219 509.699219 L 187.972656 545.828125 C 187.699219 546.335938 187.207031 546.550781 186.730469 546.550781 L 108.207031 546.550781 C 107.554688 549.035156 105.289062 550.882812 102.617188 550.882812 C 99.441406 550.882812 96.84375 548.285156 96.84375 545.109375 C 96.84375 541.929688 99.441406 539.332031 102.617188 539.332031 C 105.304688 539.332031 107.570312 541.179688 108.207031 543.664062 L 185.894531 543.664062 L 206.339844 508.257812 C 203.195312 505.628906 202.285156 501.109375 204.390625 497.441406 Z M 640.066406 631.402344 C 640.066406 636.09375 636.238281 639.921875 631.546875 639.921875 C 626.855469 639.921875 623.027344 636.09375 623.027344 631.402344 C 623.027344 627.199219 626.089844 623.691406 630.101562 622.996094 L 630.101562 501.222656 L 556.863281 438.28125 C 556.5 437.960938 556.34375 437.542969 556.355469 437.152344 L 556.355469 264.636719 C 554.695312 264.347656 553.09375 263.554688 551.777344 262.269531 C 548.789062 259.222656 548.488281 254.6875 550.855469 251.335938 L 507.882812 208.363281 C 507.535156 208.015625 507.417969 207.597656 507.460938 207.222656 L 507.460938 133.171875 C 504.980469 132.523438 503.128906 130.257812 503.128906 127.585938 C 503.128906 124.40625 505.730469 121.808594 508.90625 121.808594 C 512.082031 121.808594 514.683594 124.40625 514.683594 127.585938 C 514.683594 130.269531 512.835938 132.539062 510.351562 133.171875 L 510.351562 206.746094 L 552.90625 249.300781 C 556.253906 246.933594 560.804688 247.25 563.835938 250.226562 C 567.15625 253.617188 567.15625 258.875 563.835938 262.28125 C 562.523438 263.566406 560.917969 264.363281 559.257812 264.652344 L 559.257812 436.546875 L 632.414062 499.40625 C 632.644531 499.5625 632.816406 499.808594 632.933594 500.140625 C 632.976562 500.285156 633.003906 500.414062 633.003906 500.574219 L 633.003906 623.011719 C 637.003906 623.691406 640.066406 627.199219 640.066406 631.402344 Z M 640.066406 631.402344 " fill-opacity="1" fill-rule="nonzero"/></g></g></g></g><g clip-path="url(#c906251e89)"><path fill="#40a0f0" d="M 39.492188 719.09375 C 39.492188 714.398438 35.667969 710.574219 30.972656 710.574219 C 26.28125 710.574219 22.453125 714.398438 22.453125 719.09375 C 22.453125 723.296875 25.515625 726.804688 29.53125 727.496094 L 29.53125 771.09375 C 29.53125 771.570312 29.730469 771.945312 30.019531 772.191406 L 60.707031 802.875 C 61.054688 803.222656 61.472656 803.335938 61.847656 803.292969 L 233.699219 803.292969 C 234.175781 803.292969 234.550781 803.089844 234.796875 802.804688 L 287.375 750.226562 L 437.78125 750.226562 C 438.433594 752.710938 440.699219 754.558594 443.371094 754.558594 C 446.546875 754.558594 449.148438 751.960938 449.148438 748.78125 C 449.148438 745.605469 446.546875 743.007812 443.371094 743.007812 C 440.683594 743.007812 438.417969 744.855469 437.78125 747.339844 L 286.941406 747.339844 C 286.636719 747.308594 286.304688 747.367188 285.988281 747.570312 C 285.902344 747.628906 285.828125 747.683594 285.757812 747.757812 L 233.109375 800.40625 L 62.324219 800.40625 L 32.417969 770.5 L 32.417969 727.511719 C 36.433594 726.804688 39.492188 723.296875 39.492188 719.09375 M 351.546875 734.542969 C 356.238281 734.542969 360.066406 730.71875 360.066406 726.023438 C 360.066406 721.332031 356.238281 717.503906 351.546875 717.503906 C 347.34375 717.503906 343.835938 720.566406 343.140625 724.582031 L 228.5 724.582031 C 228.097656 724.582031 227.734375 724.738281 227.476562 725 L 176.34375 776.132812 L 83.550781 776.132812 L 59.492188 752.058594 L 59.492188 682.472656 L 151.652344 598.230469 C 152.011719 597.910156 152.15625 597.476562 152.128906 597.074219 L 152.128906 480.355469 C 154.609375 479.703125 156.460938 477.4375 156.460938 474.765625 C 156.460938 471.589844 153.859375 468.988281 150.683594 468.988281 C 147.507812 468.988281 144.90625 471.589844 144.90625 474.765625 C 144.90625 477.453125 146.753906 479.71875 149.238281 480.355469 L 149.238281 596.523438 L 57.167969 680.683594 C 56.964844 680.839844 56.792969 681.074219 56.675781 681.390625 C 56.632812 681.535156 56.605469 681.664062 56.605469 681.824219 L 56.605469 752.492188 C 56.5625 752.796875 56.632812 753.128906 56.835938 753.460938 C 56.894531 753.546875 56.953125 753.621094 57.023438 753.691406 L 81.933594 778.601562 C 82.195312 778.859375 82.554688 779.019531 82.957031 779.019531 L 176.804688 779.019531 C 177.109375 779.0625 177.441406 778.992188 177.757812 778.789062 C 177.84375 778.730469 177.917969 778.671875 177.988281 778.601562 L 229.121094 727.46875 L 343.15625 727.46875 C 343.835938 731.484375 347.34375 734.542969 351.546875 734.542969 Z M 129.992188 533.871094 C 134.078125 536.238281 139.246094 534.808594 141.628906 530.75 C 143.96875 526.664062 142.582031 521.464844 138.511719 519.113281 C 134.855469 517.003906 130.324219 517.914062 127.707031 521.046875 L 123.175781 518.417969 L 123.175781 459.257812 C 125.660156 458.605469 127.507812 456.339844 127.507812 453.667969 C 127.507812 450.492188 124.90625 447.890625 121.730469 447.890625 C 118.554688 447.890625 115.953125 450.492188 115.953125 453.667969 C 115.953125 456.355469 117.804688 458.621094 120.285156 459.257812 L 120.285156 519.15625 C 120.242188 519.558594 120.386719 519.976562 120.75 520.324219 C 120.820312 520.398438 120.90625 520.453125 121.007812 520.511719 L 126.265625 523.542969 C 124.863281 527.355469 126.335938 531.746094 129.992188 533.871094 Z M 81.804688 742.484375 C 81.804688 747.179688 85.628906 751.007812 90.324219 751.007812 C 95.015625 751.007812 98.84375 747.179688 98.84375 742.484375 C 98.84375 738.285156 95.78125 734.773438 91.765625 734.082031 L 91.765625 691.960938 L 186.652344 597.074219 C 187 596.726562 187.117188 596.308594 187.074219 595.933594 L 187.074219 559.195312 C 189.554688 558.546875 191.40625 556.28125 191.40625 553.609375 C 191.40625 550.433594 188.804688 547.832031 185.628906 547.832031 C 182.453125 547.832031 179.851562 550.433594 179.851562 553.609375 C 179.851562 556.292969 181.699219 558.5625 184.183594 559.195312 L 184.183594 595.457031 L 89.371094 690.269531 C 89.195312 690.429688 89.039062 690.644531 88.9375 690.921875 C 88.894531 691.066406 88.863281 691.195312 88.863281 691.355469 L 88.863281 734.066406 C 84.863281 734.773438 81.804688 738.285156 81.804688 742.484375 Z M 36.792969 595.570312 C 36.792969 600.265625 40.621094 604.089844 45.3125 604.089844 C 50.007812 604.089844 53.832031 600.265625 53.832031 595.570312 C 53.832031 591.371094 50.773438 587.859375 46.757812 587.167969 L 46.757812 181.441406 C 49.242188 180.792969 51.089844 178.527344 51.089844 175.855469 C 51.089844 172.675781 48.488281 170.078125 45.3125 170.078125 C 42.136719 170.078125 39.539062 172.675781 39.539062 175.855469 C 39.539062 178.539062 41.386719 180.808594 43.871094 181.441406 L 43.871094 587.167969 C 39.871094 587.859375 36.792969 591.371094 36.792969 595.570312 Z M 300.09375 766.773438 C 295.402344 766.773438 291.574219 770.601562 291.574219 775.292969 C 291.574219 779.988281 295.402344 783.8125 300.09375 783.8125 C 304.296875 783.8125 307.804688 780.753906 308.5 776.738281 L 628.40625 776.738281 C 629.058594 779.222656 631.324219 781.070312 633.996094 781.070312 C 637.171875 781.070312 639.773438 778.472656 639.773438 775.292969 C 639.773438 772.117188 637.171875 769.519531 633.996094 769.519531 C 631.308594 769.519531 629.042969 771.367188 628.40625 773.851562 L 308.5 773.851562 C 307.804688 769.851562 304.3125 766.773438 300.09375 766.773438 Z M 435.601562 667.441406 C 433.21875 663.367188 428.0625 661.96875 423.964844 664.320312 C 421.695312 665.648438 420.253906 667.859375 419.832031 670.257812 L 307.417969 670.257812 C 307.011719 670.214844 306.59375 670.359375 306.246094 670.71875 C 306.175781 670.789062 306.101562 670.878906 306.058594 670.980469 L 290.492188 697.9375 L 220.226562 697.9375 C 219.921875 697.910156 219.589844 697.96875 219.257812 698.167969 C 219.171875 698.226562 219.101562 698.285156 219.027344 698.355469 L 167.679688 749.707031 L 122.929688 749.707031 L 122.929688 706.6875 C 126.945312 705.996094 130.003906 702.5 130.003906 698.285156 C 130.003906 693.59375 126.179688 689.765625 121.484375 689.765625 C 116.792969 689.765625 112.964844 693.59375 112.964844 698.285156 C 112.964844 702.488281 116.027344 705.996094 120.042969 706.6875 L 120.042969 751.152344 C 120.042969 752.046875 120.75 752.578125 121.484375 752.59375 L 168.269531 752.59375 C 168.746094 752.59375 169.125 752.390625 169.367188 752.101562 L 220.660156 700.828125 L 291.332031 700.828125 C 291.921875 700.828125 292.339844 700.523438 292.570312 700.105469 L 308.140625 673.160156 L 419.820312 673.160156 C 419.976562 674.125 420.324219 675.078125 420.84375 675.976562 C 422.980469 679.628906 427.34375 681.117188 431.167969 679.699219 L 452.019531 715.828125 C 452.292969 716.335938 452.785156 716.550781 453.261719 716.550781 L 531.789062 716.550781 C 532.4375 719.035156 534.703125 720.882812 537.375 720.882812 C 540.554688 720.882812 543.152344 718.285156 543.152344 715.109375 C 543.152344 711.929688 540.554688 709.332031 537.375 709.332031 C 534.691406 709.332031 532.421875 711.179688 531.789062 713.664062 L 454.101562 713.664062 L 433.652344 678.257812 C 436.800781 675.628906 437.710938 671.109375 435.601562 667.441406 Z M -0.0703125 801.402344 C -0.0703125 806.09375 3.753906 809.921875 8.449219 809.921875 C 13.140625 809.921875 16.96875 806.09375 16.96875 801.402344 C 16.96875 797.199219 13.90625 793.691406 9.890625 792.996094 L 9.890625 671.222656 L 83.132812 608.28125 C 83.492188 607.960938 83.652344 607.542969 83.636719 607.152344 L 83.636719 434.636719 C 85.296875 434.347656 86.902344 433.554688 88.214844 432.269531 C 91.203125 429.222656 91.507812 424.6875 89.140625 421.335938 L 132.113281 378.363281 C 132.460938 378.015625 132.574219 377.597656 132.53125 377.222656 L 132.53125 303.171875 C 135.015625 302.523438 136.863281 300.257812 136.863281 297.585938 C 136.863281 294.40625 134.265625 291.808594 131.085938 291.808594 C 127.910156 291.808594 125.3125 294.40625 125.3125 297.585938 C 125.3125 300.269531 127.160156 302.539062 129.644531 303.171875 L 129.644531 376.746094 L 87.089844 419.300781 C 83.738281 416.933594 79.191406 417.25 76.15625 420.226562 C 72.835938 423.617188 72.835938 428.875 76.15625 432.28125 C 77.472656 433.566406 79.074219 434.363281 80.734375 434.652344 L 80.734375 606.546875 L 7.582031 669.40625 C 7.351562 669.5625 7.175781 669.808594 7.0625 670.140625 C 7.019531 670.285156 6.988281 670.414062 6.988281 670.574219 L 6.988281 793.011719 C 2.988281 793.691406 -0.0703125 797.199219 -0.0703125 801.402344 Z M -0.0703125 801.402344 " fill-opacity="1" fill-rule="nonzero"/></g></svg>